# xmcd
#
# Track frame offsets:
#	150
#	12858
#	22754
#	41260
#	57412
#	70970
#
# Disc length: 1090 seconds
#
# Revision: 1
# Processed by: cddbd v1.5.2PL0 Copyright (c) Steve Scherf et al.
# Submitted via: audiograbber 1.83.01
#
DISCID=40044006
DTITLE=Boyd, Lance - The Cincinnati Blues
DYEAR=2004
DGENRE=Blues
TTITLE0=The Cincinnati Blues
TTITLE1=Tore Up From The Floor Up
TTITLE2=I Still Love You
TTITLE3=Good Thing
TTITLE4=A Little Something
TTITLE5=Why Do You Treat Me So Bad
EXTD=
EXTT0=
EXTT1=
EXTT2=
EXTT3=
EXTT4=
EXTT5=
PLAYORDER=
